<svg width="24" height="24" viewBox="0 0 24 24" fill="none" xmlns="http://www.w3.org/2000/svg">
<path fill-rule="evenodd" clip-rule="evenodd" d="M8.0236 3.99468C8.2551 3.26934 8.92935 2.778 9.69 2.778H14.31C15.0706 2.778 15.7436 3.27009 15.9761 3.9936L16.5474 5.778H18C18.0186 5.778 18.037 5.77867 18.0552 5.78H19C19.4142 5.78 19.75 6.11579 19.75 6.53C19.75 6.94421 19.4142 7.28 19 7.28H18.75V18.267C18.75 19.8992 17.4272 21.222 15.795 21.222H8.205C6.57279 21.222 5.25 19.8992 5.25 18.267V7.28H5C4.58579 7.28 4.25 6.94421 4.25 6.53C4.25 6.11579 4.58579 5.78 5 5.78H5.9448C5.96303 5.77867 5.98144 5.778 6 5.778H7.45263L8.0236 3.99468C8.02355 3.99485 8.02365 3.99452 8.0236 3.99468ZM6.75 7.28V18.267C6.75 19.0708 7.40121 19.722 8.205 19.722H15.795C16.5988 19.722 17.25 19.0708 17.25 18.267V7.28H6.75ZM14.9724 5.778H9.02763L9.45228 4.45169C9.48493 4.3493 9.58082 4.278 9.69 4.278H14.31C14.4173 4.278 14.5142 4.34776 14.5478 4.45206C14.5478 4.45195 14.5479 4.45217 14.5478 4.45206L14.9724 5.778ZM12 8.56C12.4142 8.56 12.75 8.89579 12.75 9.31V17.58C12.75 17.9942 12.4142 18.33 12 18.33C11.5858 18.33 11.25 17.9942 11.25 17.58V9.31C11.25 8.89579 11.5858 8.56 12 8.56ZM9 9.72C9.41421 9.72 9.75 10.0558 9.75 10.47V16.53C9.75 16.9442 9.41421 17.28 9 17.28C8.58579 17.28 8.25 16.9442 8.25 16.53V10.47C8.25 10.0558 8.58579 9.72 9 9.72ZM15 9.72C15.4142 9.72 15.75 10.0558 15.75 10.47V16.53C15.75 16.9442 15.4142 17.28 15 17.28C14.5858 17.28 14.25 16.9442 14.25 16.53V10.47C14.25 10.0558 14.5858 9.72 15 9.72Z" fill="#730641"/>
</svg>
