<svg width="24" height="24" viewBox="0 0 24 24" fill="none" xmlns="http://www.w3.org/2000/svg">
<path fill-rule="evenodd" clip-rule="evenodd" d="M15 13.25C15.4142 13.25 15.75 13.5858 15.75 14C15.75 16.0711 14.0711 17.75 12 17.75C11.5858 17.75 11.25 17.4142 11.25 17C11.25 16.5858 11.5858 16.25 12 16.25C13.2426 16.25 14.25 15.2426 14.25 14C14.25 13.5858 14.5858 13.25 15 13.25ZM12 19.5C15.0895 19.5 17.5 17.0985 17.5 14.25C17.5 12.3153 16.534 10.3044 15.2167 8.49796C14.107 6.97636 12.8428 5.72877 12 4.96826C11.1572 5.72877 9.893 6.97636 8.78334 8.49796C7.46597 10.3044 6.5 12.3153 6.5 14.25C6.5 17.0985 8.91055 19.5 12 19.5ZM12 21C15.866 21 19 17.9779 19 14.25C19 9.44588 14.2792 4.94524 12.5912 3.48952C12.247 3.19268 11.753 3.19268 11.4088 3.48952C9.72078 4.94524 5 9.44588 5 14.25C5 17.9779 8.13401 21 12 21Z" fill="#730641"/>
</svg>
