<svg width="24" height="24" viewBox="0 0 24 24" fill="none" xmlns="http://www.w3.org/2000/svg">
<path fill-rule="evenodd" clip-rule="evenodd" d="M13.6627 6.1122C11.6238 4.07327 8.31806 4.07327 6.27913 6.1122C4.24021 8.15113 4.24021 11.4569 6.27913 13.4958C8.28518 15.5019 11.5175 15.5342 13.5631 13.5929C13.5816 13.5697 13.6016 13.5474 13.6233 13.5261C13.6457 13.504 13.6691 13.4836 13.6935 13.4648C15.7016 11.4235 15.6914 8.14084 13.6627 6.1122ZM15.187 14.0433C17.3378 11.4035 17.1832 7.51136 14.7234 5.05154C12.0987 2.42683 7.84319 2.42683 5.21847 5.05154C2.59376 7.67625 2.59376 11.9318 5.21847 14.5565C7.64952 16.9875 11.4796 17.1669 14.1171 15.0946L19.4661 20.5167C19.757 20.8116 20.2318 20.8148 20.5267 20.5239C20.8216 20.233 20.8248 19.7582 20.5339 19.4633L15.187 14.0433Z" fill="white"/>
</svg>
