<svg width="24" height="24" viewBox="0 0 24 24" fill="none" xmlns="http://www.w3.org/2000/svg">
<path fill-rule="evenodd" clip-rule="evenodd" d="M13.6628 6.1122C11.6238 4.07328 8.31809 4.07328 6.27916 6.1122C4.24024 8.15113 4.24024 11.4569 6.27916 13.4958C8.28521 15.5019 11.5176 15.5342 13.5632 13.5929C13.5816 13.5697 13.6017 13.5474 13.6233 13.5261C13.6457 13.504 13.6692 13.4836 13.6935 13.4648C15.7016 11.4236 15.6914 8.14084 13.6628 6.1122ZM15.187 14.0433C17.3378 11.4035 17.1833 7.51136 14.7234 5.05154C12.0987 2.42683 7.84322 2.42683 5.2185 5.05154C2.59379 7.67626 2.59379 11.9318 5.2185 14.5565C7.64955 16.9875 11.4796 17.1669 14.1171 15.0946L19.4661 20.5167C19.757 20.8116 20.2318 20.8148 20.5267 20.5239C20.8216 20.233 20.8248 19.7582 20.5339 19.4633L15.187 14.0433Z" fill="#730641"/>
</svg>
