<svg width="24" height="24" viewBox="0 0 24 24" fill="none" xmlns="http://www.w3.org/2000/svg">
<path fill-rule="evenodd" clip-rule="evenodd" d="M7.40867 5.34767C8.87356 3.88278 11.2474 3.88278 12.7123 5.34767C14.1771 6.81241 14.1772 9.18595 12.7128 10.6509C11.9812 11.3837 11.0197 11.75 10.061 11.75C10.0406 11.75 10.0205 11.7492 10.0005 11.7476C9.98054 11.7492 9.96037 11.75 9.94 11.75H5C4.58579 11.75 4.25 11.4142 4.25 11C4.25 10.5858 4.58579 10.25 5 10.25H9.94C9.96037 10.25 9.98054 10.2508 10.0005 10.2524C10.0205 10.2508 10.0406 10.25 10.061 10.25C10.6383 10.25 11.2128 10.0303 11.6512 9.59112C12.5303 8.71202 12.5308 7.28744 11.6517 6.40833C10.7726 5.52922 9.34844 5.52922 8.46933 6.40833C8.17644 6.70122 7.70156 6.70122 7.40867 6.40833C7.11578 6.11544 7.11578 5.64056 7.40867 5.34767ZM16.4697 8.46967C17.6776 7.26178 19.6364 7.26178 20.8443 8.46967C22.0522 9.67756 22.0522 11.6364 20.8443 12.8443C20.2823 13.4051 19.5569 13.7067 18.8212 13.7457C18.7946 13.7485 18.7674 13.75 18.74 13.75H15C14.5858 13.75 14.25 13.4142 14.25 13C14.25 12.5858 14.5858 12.25 15 12.25H18.657C19.0657 12.25 19.4718 12.0947 19.784 11.7833C20.4058 11.1612 20.4057 10.1523 19.7837 9.53033C19.1616 8.90823 18.1524 8.90823 17.5303 9.53033C17.2374 9.82322 16.7626 9.82322 16.4697 9.53033C16.1768 9.23744 16.1768 8.76256 16.4697 8.46967ZM2.25 15C2.25 14.5858 2.58579 14.25 3 14.25H11.69C11.6978 14.25 11.7057 14.2501 11.7135 14.2504C12.5279 14.2625 13.3412 14.5796 13.9633 15.2017C15.2324 16.4707 15.232 18.5284 13.9636 19.7981C12.6942 21.0688 10.6363 21.0666 9.36694 19.7986C9.0739 19.5059 9.07366 19.031 9.3664 18.7379C9.65914 18.4449 10.134 18.4447 10.4271 18.7374C11.1117 19.4214 12.2198 19.4212 12.9024 18.7379C13.586 18.0536 13.5856 16.9453 12.9027 16.2623C12.5611 15.9208 12.1144 15.75 11.665 15.75H3C2.58579 15.75 2.25 15.4142 2.25 15Z" fill="#730641"/>
</svg>
